<svg width="66" height="66" viewBox="0 0 66 66" fill="none" xmlns="http://www.w3.org/2000/svg">
<path d="M3 17.6667V5C3 3.89543 3.89543 3 5 3H24.3333C25.4379 3 26.3333 3.89543 26.3333 5V17.6667C26.3333 18.7712 25.4379 19.6667 24.3333 19.6667H5C3.89543 19.6667 3 18.7712 3 17.6667Z" stroke="white" stroke-width="5.26"/>
<path d="M39.6667 61V48.3333C39.6667 47.2287 40.562 46.3333 41.6667 46.3333H61C62.1047 46.3333 63 47.2287 63 48.3333V61C63 62.1047 62.1047 63 61 63H41.6667C40.562 63 39.6667 62.1047 39.6667 61Z" stroke="white" stroke-width="5.26"/>
<path d="M39.6667 34.3333V5C39.6667 3.89543 40.562 3 41.6667 3H61C62.1047 3 63 3.89543 63 5V34.3333C63 35.438 62.1047 36.3333 61 36.3333H41.6667C40.562 36.3333 39.6667 35.438 39.6667 34.3333Z" stroke="white" stroke-width="5.26"/>
<path d="M3 61V31.6667C3 30.562 3.89543 29.6667 5 29.6667H24.3333C25.4379 29.6667 26.3333 30.562 26.3333 31.6667V61C26.3333 62.1047 25.4379 63 24.3333 63H5C3.89543 63 3 62.1047 3 61Z" stroke="white" stroke-width="5.26"/>
</svg>
